<svg width="73" height="44" viewBox="0 0 73 44" fill="none" xmlns="http://www.w3.org/2000/svg">
<g clip-path="url(#clip0_1057_73888)">
<path d="M53.9973 7.1131C54.0009 7.0853 54.0009 7.0572 53.9973 7.0294C54.0007 7.00675 54.0007 6.98365 53.9973 6.96095L53.738 5.00585C53.7006 4.77194 53.6006 4.55333 53.4491 4.37444L53.4047 4.32119L53.3232 4.2375L48.8346 0.26645L48.9605 0.395786C48.8575 0.269197 48.7282 0.167942 48.582 0.0994815C48.4359 0.0310202 48.2767 -0.00290835 48.1161 0.000198709H46.7532C46.5316 -0.00431106 46.315 0.068057 46.1384 0.205601C45.953 0.0688855 45.7297 -0.00311239 45.5014 0.000198709H44.1385C43.9598 -0.00277982 43.7835 0.0427824 43.6274 0.132286C43.4713 0.221788 43.341 0.352055 43.2497 0.50989C43.1089 0.735325 43.056 1.00694 43.1015 1.27063L43.2719 2.50302C43.159 2.43731 43.0313 2.40321 42.9015 2.40413H36.3019C36.0651 2.40566 35.8338 2.47694 35.6353 2.60952C35.4433 2.73293 35.2892 2.90965 35.1909 3.11922L34.6798 2.67038C34.4786 2.47923 34.2131 2.37562 33.9391 2.38131H23.5841C23.3464 2.38576 23.1141 2.45393 22.91 2.5791C22.6309 2.74691 22.4263 3.01976 22.3397 3.33983L19.051 14.6368C18.9895 14.8229 18.9835 15.0237 19.0336 15.2134C19.0838 15.403 19.1878 15.5731 19.3325 15.7018C19.3701 15.7346 19.4097 15.7652 19.451 15.7931C19.451 15.7931 19.3843 15.7474 19.3473 15.7094L23.8359 19.6881C24.0258 19.8677 24.2741 19.968 24.5321 19.9695H34.9687C35.207 19.9632 35.4395 19.8924 35.6427 19.7642C35.7576 19.6996 35.8604 19.6146 35.9464 19.5131L35.9834 19.4599L36.0427 19.3838L36.0871 19.3001L36.576 19.7337C36.7631 19.9061 37.006 20.001 37.2574 20H47.7161C47.9542 19.9918 48.1863 19.9212 48.3901 19.7946C48.5025 19.7261 48.6047 19.6416 48.6939 19.5436L48.7308 19.4903L48.7901 19.4142C48.8216 19.3661 48.8489 19.3152 48.8716 19.2621C48.8958 19.216 48.9156 19.1675 48.9308 19.1175L51.9307 8.80195V8.71065C51.9344 8.67525 51.9344 8.63955 51.9307 8.60415V8.5357C51.9343 8.513 51.9343 8.4899 51.9307 8.4672C51.934 8.4191 51.934 8.3708 51.9307 8.32265H52.8936C52.9774 8.33055 53.0617 8.33055 53.1454 8.32265H53.2121C53.2663 8.30605 53.3185 8.28305 53.3677 8.2542H53.4417L53.575 8.1477L53.6343 8.10205L53.738 7.9651V7.9195L53.8121 7.79015C53.8079 7.765 53.8079 7.73925 53.8121 7.7141C53.8081 7.70175 53.8081 7.6884 53.8121 7.67605C53.8278 7.63145 53.8402 7.58565 53.8491 7.5391C53.8457 7.5241 53.8457 7.50845 53.8491 7.49345C53.8455 7.4708 53.8455 7.44765 53.8491 7.425C53.8491 7.425 53.9973 7.1283 53.9973 7.1131Z" fill="black"/>
<path d="M34.2427 3.24856C34.2821 3.28508 34.3095 3.3331 34.3214 3.38615C34.3334 3.4392 34.3292 3.49473 34.3094 3.54525L31.0281 14.8346C30.9868 14.9578 30.9023 15.0609 30.7911 15.1237C30.7006 15.1858 30.5959 15.2225 30.4874 15.2302H20.0583C19.9693 15.2258 19.8849 15.1879 19.8213 15.1237C19.7835 15.0877 19.757 15.041 19.7451 14.9896C19.7332 14.9381 19.7365 14.8841 19.7547 14.8346L23.0434 3.54525C23.0813 3.42044 23.1631 3.31464 23.273 3.24856C23.3649 3.19087 23.4692 3.15694 23.5767 3.14966H34.0057C34.0941 3.15054 34.1788 3.1859 34.2427 3.24856ZM28.7986 12.56L30.7615 5.81985H25.2655L23.31 12.56H28.7986ZM44.1978 3.36267C44.2334 3.40514 44.2778 3.43882 44.3279 3.46121C44.3779 3.4836 44.4321 3.49412 44.4867 3.49199H45.8421C45.8938 3.49251 45.9446 3.47951 45.99 3.45422C46.0354 3.42893 46.0737 3.39218 46.1014 3.34745C46.1254 3.31251 46.1425 3.27296 46.1514 3.23114C46.1602 3.18932 46.1609 3.1461 46.1532 3.10402L45.8866 1.09567C45.8612 1.00272 45.8156 0.916894 45.7533 0.844629C45.7176 0.802159 45.6732 0.768479 45.6232 0.746089C45.5732 0.723699 45.5189 0.713179 45.4644 0.715304H44.1089C44.0573 0.714789 44.0064 0.727789 43.961 0.753079C43.9157 0.778369 43.8773 0.815114 43.8497 0.859849C43.7978 0.966349 43.7756 1.03481 43.7978 1.09567L44.0719 3.10402C44.0859 3.20181 44.1301 3.29243 44.1978 3.36267ZM48.5013 1.08046C48.4758 0.987504 48.4302 0.901674 48.3679 0.829414C48.3338 0.787099 48.2907 0.753429 48.2419 0.730999C48.1931 0.708574 48.1399 0.697994 48.0865 0.700089H46.7236C46.6728 0.698604 46.6226 0.711254 46.5783 0.736699C46.5339 0.762144 46.4971 0.799444 46.4717 0.844629C46.4225 0.912119 46.4011 0.996894 46.4125 1.08046L46.6865 3.0888C46.7037 3.18556 46.7474 3.27528 46.8125 3.34745C46.8487 3.38909 46.8933 3.42221 46.9431 3.44453C46.993 3.46685 47.0469 3.47785 47.1013 3.47677H48.4642C48.5149 3.47746 48.5647 3.46448 48.6089 3.43911C48.6532 3.41374 48.6901 3.37689 48.7161 3.33224C48.7418 3.29821 48.7598 3.25867 48.7688 3.21655C48.7778 3.17443 48.7775 3.13078 48.7679 3.0888L48.5013 1.08046ZM43.0052 4.12341L42.8719 3.13445H36.3019C36.1988 3.14029 36.099 3.17444 36.013 3.23334C35.9585 3.2639 35.911 3.30625 35.8739 3.35747C35.8369 3.40869 35.811 3.46756 35.7983 3.53003L35.2501 5.41665C35.2282 5.4638 35.2208 5.5167 35.2287 5.5683C35.2366 5.6199 35.2596 5.6678 35.2945 5.70575C35.357 5.76605 35.4385 5.8012 35.5242 5.80465H43.5089L41.5461 12.5448H33.5835C33.4809 12.5472 33.3809 12.5788 33.2947 12.636C33.1899 12.7044 33.1134 12.81 33.0799 12.9327L32.5243 14.8194C32.5062 14.8678 32.5014 14.9204 32.5106 14.9714C32.5198 15.0224 32.5424 15.0698 32.5762 15.1084C32.6367 15.1728 32.7188 15.2109 32.8058 15.2149H43.2645C43.3726 15.2054 43.4769 15.1688 43.5682 15.1084C43.6775 15.0453 43.7596 14.9421 43.7978 14.8194L46.805 4.50378H43.42C43.3663 4.50486 43.313 4.49462 43.2633 4.47369C43.2136 4.45275 43.1687 4.42156 43.1312 4.38205C43.0699 4.31307 43.0266 4.22935 43.0052 4.13862V4.12341Z" fill="white"/>
</g>
<g clip-path="url(#clip1_1057_73888)">
<path d="M6.95324 43.3515C5.96774 43.3515 5.07349 43.1747 4.27049 42.821C3.46749 42.4673 2.77399 41.9898 2.18999 41.3886C1.61816 40.7755 1.17407 40.0917 0.857739 39.3372C0.553573 38.5709 0.401489 37.781 0.401489 36.9675C0.401489 36.1305 0.565739 35.3347 0.894239 34.5802C1.22274 33.8138 1.67899 33.136 2.26299 32.5465C2.85916 31.957 3.55874 31.4913 4.36174 31.1494C5.17691 30.7957 6.06507 30.6189 7.02624 30.6189C8.01174 30.6189 8.90599 30.8016 9.70899 31.1671C10.512 31.5326 11.1994 32.0218 11.7712 32.6349C12.3431 33.248 12.7811 33.9376 13.0852 34.704C13.4016 35.4585 13.5597 36.2366 13.5597 37.0383C13.5597 37.8635 13.3955 38.6534 13.067 39.408C12.7507 40.1625 12.2944 40.8404 11.6982 41.4416C11.1142 42.0311 10.4207 42.4968 9.61774 42.8387C8.81474 43.1806 7.92657 43.3515 6.95324 43.3515ZM6.98974 40.2922C7.50074 40.2922 7.94482 40.1978 8.32199 40.0092C8.69916 39.8206 9.00332 39.5671 9.23449 39.2488C9.47782 38.9305 9.65424 38.5768 9.76374 38.1877C9.88541 37.7869 9.94624 37.3802 9.94624 36.9675C9.94624 36.5431 9.88541 36.1364 9.76374 35.7473C9.64207 35.3465 9.45957 34.9928 9.21624 34.6863C8.97291 34.3797 8.66266 34.1381 8.28549 33.9612C7.90832 33.7726 7.47032 33.6783 6.97149 33.6783C6.46049 33.6783 6.01641 33.7726 5.63924 33.9612C5.27424 34.1498 4.97007 34.4033 4.72674 34.7216C4.48341 35.04 4.30091 35.3995 4.17924 35.8004C4.06974 36.1894 4.01499 36.5903 4.01499 37.0029C4.01499 37.4273 4.07582 37.8341 4.19749 38.2231C4.31916 38.6122 4.50166 38.9658 4.74499 39.2842C4.98832 39.5907 5.29249 39.8383 5.65749 40.0269C6.03466 40.2037 6.47874 40.2922 6.98974 40.2922ZM5.52974 37.9578H8.85124L13.8882 43.2631H10.5667L5.52974 37.9578ZM14.7396 40.08V33.9612H18.2071V39.3195C18.2071 39.7204 18.2984 40.0387 18.4809 40.2745C18.6755 40.4985 18.9371 40.6105 19.2656 40.6105C19.4481 40.6105 19.6306 40.5869 19.8131 40.5397C19.9956 40.4926 20.1781 40.3983 20.3606 40.2568C20.5553 40.1153 20.7439 39.9149 20.9264 39.6555V33.9612H24.3939V39.5494C24.3939 39.8677 24.4425 40.0917 24.5399 40.2214C24.6372 40.3393 24.8075 40.4101 25.0508 40.4336V43.2631C24.7467 43.3221 24.4729 43.3633 24.2296 43.3869C23.9863 43.4223 23.7733 43.44 23.5909 43.44C23.0069 43.44 22.5445 43.3338 22.2039 43.1216C21.8632 42.9094 21.6442 42.5852 21.5469 42.149L21.4739 41.813C21.0237 42.3907 20.4823 42.8092 19.8496 43.0686C19.2291 43.3162 18.5234 43.44 17.7326 43.44C16.7714 43.44 16.0293 43.1511 15.5061 42.5734C14.9951 41.9957 14.7396 41.1646 14.7396 40.08ZM26.4688 43.2631V33.9612H29.9363V43.2631H26.4688ZM26.4688 33.1831V30.3536H29.9363V33.1831H26.4688ZM31.2162 41.2825L35.5962 36.2602H31.4899V33.9612H39.2097V35.9418L34.8479 40.9642H39.3739V43.2631H31.2162V41.2825ZM44.4098 30.7073H47.6765L48.8628 34.5802L50.0673 30.7073H53.334L51.144 36.7023L52.0748 39.2665L54.867 30.7073H58.736L53.845 43.2631H50.7608L48.8628 38.7713L46.983 43.2631H43.8988L39.0078 30.7073H42.8585L45.669 39.2665L46.5633 36.7023L44.4098 30.7073ZM59.3865 43.2631V33.9612H62.854V43.2631H59.3865ZM59.3865 33.1831V30.3536H62.854V33.1831H59.3865ZM64.1339 41.2825L68.5139 36.2602H64.4077V33.9612H72.1274V35.9418L67.7657 40.9642H72.2917V43.2631H64.1339V41.2825Z" fill="black"/>
</g>
<defs>
<clipPath id="clip0_1057_73888">
<rect width="35" height="20" fill="white" transform="translate(19)"/>
</clipPath>
<clipPath id="clip1_1057_73888">
<rect width="73" height="14" fill="white" transform="translate(0 30)"/>
</clipPath>
</defs>
</svg>
